<mxfile host="app.diagrams.net" modified="2021-08-29T02:57:25.681Z" agent="5.0 (Macintosh; Intel Mac OS X 10_15_7) AppleWebKit/537.36 (KHTML, like Gecko) Chrome/92.0.4515.159 Safari/537.36" etag="62jYPIHXDpKGyOuApZgw" version="14.9.9" type="github">
  <diagram id="fUVPjbw-NESY2VLgEbS7" name="Page-1">
    <mxGraphModel dx="396" dy="889" grid="1" gridSize="10" guides="1" tooltips="1" connect="1" arrows="1" fold="1" page="1" pageScale="1" pageWidth="827" pageHeight="1169" math="0" shadow="0">
      <root>
        <mxCell id="0" />
        <mxCell id="1" parent="0" />
        <mxCell id="2mGRgbVqDGDI0ZnhDCfn-4" value="&lt;div&gt;&lt;font color=&quot;#000000&quot;&gt;表单引擎&lt;/font&gt;&lt;/div&gt;&lt;div&gt;&lt;/div&gt;" style="rounded=0;whiteSpace=wrap;html=1;align=left;verticalAlign=top;fontColor=#ffffff;strokeColor=none;fillColor=#97D077;" vertex="1" parent="1">
          <mxGeometry x="260" y="520" width="495.56" height="200" as="geometry" />
        </mxCell>
        <mxCell id="2mGRgbVqDGDI0ZnhDCfn-3" value="&lt;div&gt;&lt;span&gt;SOP布局&lt;/span&gt;&lt;/div&gt;&lt;div&gt;&lt;/div&gt;" style="rounded=0;whiteSpace=wrap;html=1;align=left;verticalAlign=top;strokeColor=none;fillColor=#7EA6E0;" vertex="1" parent="1">
          <mxGeometry x="260" y="580" width="346.77" height="140" as="geometry" />
        </mxCell>
        <mxCell id="2mGRgbVqDGDI0ZnhDCfn-2" value="&lt;div&gt;&lt;span&gt;SOP组件&lt;/span&gt;&lt;/div&gt;&lt;div&gt;&lt;/div&gt;" style="rounded=0;whiteSpace=wrap;html=1;align=left;verticalAlign=top;strokeColor=none;fillColor=#EA6B66;" vertex="1" parent="1">
          <mxGeometry x="260" y="640" width="198" height="80" as="geometry" />
        </mxCell>
        <mxCell id="2mGRgbVqDGDI0ZnhDCfn-6" value="" style="shape=flexArrow;endArrow=classic;html=1;endWidth=11;endSize=4.62;fillColor=#4D4D4D;" edge="1" parent="1">
          <mxGeometry width="50" height="50" relative="1" as="geometry">
            <mxPoint x="340" y="670" as="sourcePoint" />
            <mxPoint x="340" y="550" as="targetPoint" />
          </mxGeometry>
        </mxCell>
        <mxCell id="2mGRgbVqDGDI0ZnhDCfn-7" value="" style="endArrow=classic;html=1;fillColor=#4D4D4D;" edge="1" parent="1">
          <mxGeometry width="50" height="50" relative="1" as="geometry">
            <mxPoint x="350" y="600" as="sourcePoint" />
            <mxPoint x="400" y="600" as="targetPoint" />
          </mxGeometry>
        </mxCell>
      </root>
    </mxGraphModel>
  </diagram>
</mxfile>
